<svg version="1.1"
     width="58" height="110"
     xmlns="http://www.w3.org/2000/svg">
	<style>
		<![CDATA[
			text{
				font-family: "Britannic", "Bauhaus 93", Arial, sans-serif;
    		}
		]]>
	</style>

	<!-- background, comment out when printing -->
	<!-- <rect width="100%" height="100%" fill="#BBAA00" /> -->

	<!-- border -->
	<rect x="1" y="1" rx="3" ry="3" width="56" height="108" stroke="black" fill="transparent" stroke-width="1"/>

	<!-- Knobs -->
	<text
		x="43"
		y="36"
		font-size="4"
		font-family="arial"
		text-anchor="middle"
		fill="black">
		Gain
	</text>
	<circle cx="43" cy="18" r="3.5" fill="#555555" />
	<text
		x="15"
		y="36"
		font-size="4"
		text-anchor="middle"
		fill="black">
		Volume
	</text>
	<circle cx="15" cy="18" r="3.5" fill="#555555" />

	<!-- Switch -->
	<text
		x="29"
		y="48"
		font-size="4"
		text-anchor="middle"
		fill="black">
		Mode
	</text>
	<circle cx="29" cy="39" r="3" fill="#555555" />

	<!-- Logo -->
	<!-- <line x1="1" y1="87" x2="57" y2="87" stroke="black"/>-->
	<text
		x="4"
		y="54"
		font-size="4"
		fill="black">
		DOM
	</text>
	<text
		x="4"
		y="61"
		font-size="7"
		fill="black">
		Overdrive
	</text>
	<text
		x="4"
		y="68"
		font-size="7"
		fill="black">
		Preamp
	</text>
	<text
		x="41"
		y="68"
		font-size="7"
		fill="black">
		250
	</text>

	<!-- Bypass switch and LED -->
	<line x1="5"  y1="70" x2="5" y2="109" stroke="black"/>
	<line x1="9"  y1="74" x2="9" y2="109" stroke="black"/>
	<line x1="13" y1="78" x2="13" y2="109" stroke="black"/>
	<line x1="17" y1="82" x2="17" y2="109" stroke="black"/>
	<line x1="21" y1="86" x2="21" y2="109" stroke="black"/>
	<line x1="25" y1="90" x2="25" y2="109" stroke="black"/>
	<line x1="29" y1="82" x2="29" y2="109" stroke="black"/>
	<line x1="33" y1="90" x2="33" y2="109" stroke="black"/>
	<line x1="37" y1="86" x2="37" y2="109" stroke="black"/>
	<line x1="41" y1="82" x2="41" y2="109" stroke="black"/>
	<line x1="45" y1="78" x2="45" y2="109" stroke="black"/>
	<line x1="49" y1="74" x2="49" y2="109" stroke="black"/>
	<line x1="53" y1="70" x2="53" y2="109" stroke="black"/>
	<circle cx="29" cy="80" r="3.5" fill="#555555" />
	<circle cx="29" cy="100" r="6" fill="#555555" />

</svg>