<svg version="1.1"
     width="58" height="111"
     xmlns="http://www.w3.org/2000/svg">
	<style>
		<![CDATA[
			text{
				font-family: "Bauhaus 93", Arial, sans-serif;
    		}
		]]>
	</style>

	<!-- background, comment out when printing -->
	<rect width="100%" height="100%" fill="yellow" />

	<!-- border -->
	<rect x="1" y="1" rx="3" ry="3" width="56" height="109" stroke="black" fill="transparent" stroke-width="1"/>

	<!-- Knobs -->
	<text
		x="44"
		y="28"
		font-size="5"
		font-family="arial"
		text-anchor="middle"
		fill="black">
		Gain
	</text>
	<circle cx="44" cy="16" r="4" fill="#555555" />
	<text
		x="13"
		y="28"
		font-size="5"
		text-anchor="middle"
		fill="black">
		Volume
	</text>
	<circle cx="13" cy="16" r="4" fill="#555555" />

	<!-- Switch -->
	<text
		x="29"
		y="49"
		font-size="5"
		text-anchor="middle"
		fill="black">
		Sym
	</text>
	<text
		x="29"
		y="43"
		font-size="5"
		text-anchor="middle"
		fill="black">
		Asym
	</text>
	<circle cx="29" cy="35" r="3" fill="#555555" />

	<!-- Logo -->
	<line x1="1" y1="52" x2="57" y2="52" stroke="black"/>
	<line x1="1" y1="75" x2="57" y2="75" stroke="black"/>
	<text
		x="4"
		y="57"
		font-size="4"
		fill="black">
		DOM
	</text>
	<text
		x="4"
		y="64"
		font-size="8"
		fill="black">
		Overdrive
	</text>
	<text
		x="4"
		y="72"
		font-size="8"
		fill="black">
		Preamp 250
	</text>

	<!-- Bypass switch and LED -->
	<line x1="5" y1="75" x2="5" y2="110" stroke="black"/>
	<line x1="9" y1="75" x2="9" y2="110" stroke="black"/>
	<line x1="13" y1="75" x2="13" y2="110" stroke="black"/>
	<line x1="17" y1="75" x2="17" y2="110" stroke="black"/>
	<line x1="21" y1="75" x2="21" y2="110" stroke="black"/>
	<line x1="25" y1="75" x2="25" y2="110" stroke="black"/>
	<line x1="29" y1="75" x2="29" y2="110" stroke="black"/>
	<line x1="33" y1="75" x2="33" y2="110" stroke="black"/>
	<line x1="37" y1="75" x2="37" y2="110" stroke="black"/>
	<line x1="41" y1="75" x2="41" y2="110" stroke="black"/>
	<line x1="45" y1="75" x2="45" y2="110" stroke="black"/>
	<line x1="49" y1="75" x2="49" y2="110" stroke="black"/>
	<line x1="53" y1="75" x2="53" y2="110" stroke="black"/>
	<circle cx="29" cy="101" r="7" fill="#555555" />
	<circle cx="29" cy="83" r="4" fill="#555555" />

</svg>