<svg version="1.1"
     width="85" height="111"
     xmlns="http://www.w3.org/2000/svg">
	<style>
		<![CDATA[
			text{
				font-family: "Britannic", "Bauhaus 93", Arial, sans-serif;
    		}
		]]>
	</style>

	<!-- background, comment out when printing -->
	<rect width="100%" height="100%" fill="#444" />

	<!-- border -->
	<rect x="1" y="1" rx="3" ry="3" width="83" height="109" stroke="#BC0" fill="transparent" stroke-width="1"/>

	<!-- In/Out/Power -->
	<text x="42.5" y="6"
		font-size="4"
		text-anchor="middle"
		fill="#BC0">
		9V
	</text>
	<polygon points="19,6 17,3 15,6" style="fill: #BC0;"/>
	<polygon points="70,3 68,6, 66, 3" style="fill: #BC0;"/>

	<!-- divider -->
	<line x1="42.5" y1="9" x2="42.5" y2="19" stroke="#BC0"/>
	<line x1="42.5" y1="26" x2="42.5" y2="41" stroke="#BC0"/>
	<line x1="42.5" y1="49" x2="42.5" y2="67" stroke="#BC0"/>
	<line x1="42.5" y1="83" x2="42.5" y2="108" stroke="#BC0"/>


	<!-- Knobs -->
	<text x="13" y="60"
		font-size="4"
		font-family="arial"
		text-anchor="middle"
		fill="black">
		Gain
	</text>
	<text x="72" y="60"
		font-size="4"
		font-family="arial"
		text-anchor="middle"
		fill="black">
		Gain
	</text>

	<text x="13" y="32"
		font-size="4"
		text-anchor="middle"
		fill="black">
		Volume
	</text>

	<text x="72" y="32"
		font-size="4"
		text-anchor="middle"
		fill="black">
		Volume
	</text>

	<circle cx="72" cy="45" r="3.5" fill="#555555" />
	<circle cx="72" cy="17" r="3.5" fill="#555555" />
	<circle cx="13" cy="45" r="3.5" fill="#555555" />
	<circle cx="13" cy="17" r="3.5" fill="#555555" />

	<!-- Switches -->
	<text x="33" y="55"
		font-size="4"
		text-anchor="middle"
		fill="black">
		SI
	</text>
	<text x="33" y="37"
		font-size="4"
		text-anchor="middle"
		fill="black">
		GE
	</text>

	<text x="42.5" y="46"
		font-size="4"
		text-anchor="middle"
		fill="black">
		No
	</text>

	<text x="53.5" y="55"
		font-size="4"
		text-anchor="middle"
		fill="black">
		SI
	</text>
	<text x="53.5" y="37"
		font-size="4"
		text-anchor="middle"
		fill="black">
		LED
	</text>

	<text x="42.5" y="24"
		font-size="4"
		text-anchor="middle"
		fill="black">
		Mode
	</text>

	<circle cx="53.5" cy="45" r="3" fill="#555555" />
	<circle cx="53" cy="17" r="3" fill="#555555" />
	<circle cx="33" cy="45" r="3" fill="#555555" />
	<circle cx="33" cy="17" r="3" fill="#555555" />

	<!-- Logo -->
	<mask id="m">
		<rect x="8" y="69" width="69" height="12" fill="white" />
		<text x="42.5" y="78"
			font-size="10" fill="black" text-anchor="middle">
			Gray Channel
		</text>
	</mask>
	<rect x="8" y="69" width="69" height="12" fill="#BC0" mask="url(#m)" />
	<line x1="3" y1="67" x2="82" y2="67" stroke="#BC0"/>
	<line x1="3" y1="83" x2="82" y2="83" stroke="#BC0"/>

	<!-- Bypass switch and LED -->
	<circle cx="34" cy="101" r="4" fill="#555555" />
	<circle cx="51" cy="101" r="4" fill="#555555" />
	<circle cx="16" cy="101" r="6.5" fill="#555555" />
	<circle cx="69" cy="101" r="6.5" fill="#555555" />

</svg>